<svg xmlns="http://www.w3.org/2000/svg" viewBox="0 0 512 512">
  <defs>
    <linearGradient id="bg" x1="0%" y1="0%" x2="100%" y2="100%">
      <stop offset="0%" style="stop-color:#2563eb"/>
      <stop offset="100%" style="stop-color:#1d4ed8"/>
    </linearGradient>
  </defs>
  <!-- Background -->
  <rect width="512" height="512" rx="96" fill="url(#bg)"/>
  <!-- Store/Shop icon -->
  <g fill="white">
    <!-- Roof -->
    <path d="M96 200 L256 100 L416 200 L416 220 L96 220 Z"/>
    <!-- Building -->
    <rect x="120" y="220" width="272" height="180" rx="8"/>
    <!-- Door -->
    <rect x="216" y="300" width="80" height="100" rx="4" fill="#2563eb"/>
    <!-- Windows -->
    <rect x="144" y="260" width="56" height="56" rx="4" fill="#2563eb"/>
    <rect x="312" y="260" width="56" height="56" rx="4" fill="#2563eb"/>
    <!-- Awning stripes -->
    <rect x="136" y="252" width="16" height="8" fill="#fbbf24"/>
    <rect x="160" y="252" width="16" height="8" fill="#fbbf24"/>
    <rect x="336" y="252" width="16" height="8" fill="#fbbf24"/>
    <rect x="360" y="252" width="16" height="8" fill="#fbbf24"/>
  </g>
  <!-- Cart icon overlay -->
  <g transform="translate(320, 320) scale(0.35)" fill="white" opacity="0.9">
    <path d="M0 0h48v16h-32l-4 64h96l12-48h-84l4-16h96l-16 64-4 16h-84l-4 16h80v16h-96l8-32 4-16z"/>
    <circle cx="32" cy="128" r="16"/>
    <circle cx="96" cy="128" r="16"/>
  </g>
</svg>
